<svg width="23" height="23" viewBox="0 0 23 23" fill="none" xmlns="http://www.w3.org/2000/svg">
<path d="M5.97217 1.26074C4.43491 2.07067 3.10621 3.23453 2.09262 4.65899C1.07903 6.08346 0.408738 7.7289 0.135498 9.46338H0.777946C4.92063 9.36605 8.16831 9.00219 10.8208 8.17863C9.66883 6.10776 8.26283 4.07581 6.57622 2.00943L6.57474 2.00793L5.97217 1.26074Z" fill="white" fill-opacity="0.5"/>
<path d="M0.00295378 10.9605L0 11.23C0 14.2502 1.17561 16.9919 3.08818 19.0104L3.32596 18.5252C3.33917 18.4984 3.35397 18.4724 3.37027 18.4474C5.81895 14.671 8.5896 12.4249 11.6881 11.4172C11.8978 11.3483 12.1105 11.2854 12.3232 11.2285C12.0751 10.6519 11.8106 10.0826 11.5301 9.52148C8.628 10.4693 5.13958 10.8586 0.803429 10.959H0.00443067L0.00295378 10.9605Z" fill="white" fill-opacity="0.5"/>
<path d="M4.22363 20.0549C6.17506 21.6172 8.58993 22.4652 11.0764 22.4612C12.3953 22.4612 13.661 22.2276 14.8321 21.7993V20.7212C14.4718 17.8238 13.8382 15.166 12.8856 12.6294C12.6345 12.6923 12.3849 12.7642 12.1383 12.8435C9.4474 13.7195 6.93225 15.693 4.6283 19.2343L4.22511 20.0549H4.22363Z" fill="white" fill-opacity="0.5"/>
<path d="M16.3093 21.1307C17.737 20.354 18.9795 19.2696 19.9496 17.9539C20.9197 16.6382 21.5938 15.1231 21.9245 13.515L21.09 13.1332C18.6886 12.4174 16.4511 12.1239 14.3657 12.362C15.308 14.9375 15.9416 17.6418 16.3034 20.5796C16.3078 20.6096 16.3093 20.6395 16.3093 20.6725V21.1307Z" fill="white" fill-opacity="0.5"/>
<path d="M22.1293 11.9669C22.3243 9.02555 21.3662 6.12509 19.4635 3.896L19.0249 4.38863C17.2969 6.5194 15.3238 7.99732 12.9253 9.00355C13.2384 9.63844 13.5308 10.2778 13.8011 10.9262C16.2705 10.5668 18.8668 10.9052 21.5562 11.7123C21.589 11.722 21.6211 11.734 21.6522 11.7482L22.1293 11.9669Z" fill="white" fill-opacity="0.5"/>
<path d="M18.4258 2.82706C16.4014 1.00215 13.7857 -0.00408276 11.0768 1.24511e-05C9.78008 1.24511e-05 8.53653 0.224619 7.38013 0.64089L7.71686 1.05716C9.51867 3.2628 11.0133 5.44298 12.2332 7.67258C14.512 6.73971 16.3183 5.3756 17.8956 3.42452C17.9028 3.41535 17.9101 3.40636 17.9177 3.39756L18.4258 2.82856V2.82706Z" fill="white" fill-opacity="0.5"/>
</svg>
