<svg width="40" height="40" viewBox="0 0 40 40" fill="none" xmlns="http://www.w3.org/2000/svg">
<path d="M17.7039 0.951076C19.1741 0.342112 20.8259 0.342112 22.2961 0.951076L31.846 4.90679C33.3162 5.51575 34.4842 6.6838 35.0932 8.15396L39.0489 17.7039C39.6579 19.1741 39.6579 20.8259 39.0489 22.2961L35.0932 31.846C34.4842 33.3162 33.3162 34.4842 31.846 35.0932L22.2961 39.0489C20.8259 39.6579 19.1741 39.6579 17.7039 39.0489L8.15396 35.0932C6.6838 34.4842 5.51575 33.3162 4.90679 31.846L0.951076 22.2961C0.342112 20.8259 0.342112 19.1741 0.951076 17.7039L4.90679 8.15396C5.51575 6.6838 6.6838 5.51575 8.15396 4.90679L17.7039 0.951076Z" fill="#FF3939"/>
<path d="M15.2294 14.8414H24.7706C24.8716 14.8414 24.9541 14.7607 24.9541 14.6621C24.9541 13.7655 24.7523 12.943 24.3601 12.2392C23.9656 11.5331 23.3853 10.966 22.6628 10.5805C21.9427 10.1972 21.1009 10 20.1835 10H19.8165C18.8991 10 18.0573 10.1972 17.3372 10.5805C16.6147 10.966 16.0344 11.5331 15.6399 12.2392C15.2477 12.943 15.0459 13.7655 15.0459 14.6621C15.0459 14.7607 15.1284 14.8414 15.2294 14.8414Z" fill="#141414"/>
<path d="M29.8165 20.0415H26.422V17.8001C28.1835 17.8001 29.6101 16.4059 29.6101 14.6845C29.6101 14.5859 29.5275 14.5052 29.4266 14.5052H28.0505C27.9495 14.5052 27.867 14.5859 27.867 14.6845C27.867 15.4645 27.2202 16.0966 26.422 16.0966H13.578C12.7798 16.0966 12.133 15.4645 12.133 14.6845C12.133 14.5859 12.0505 14.5052 11.9495 14.5052H10.5734C10.4725 14.5052 10.3899 14.5859 10.3899 14.6845C10.3899 16.4059 11.8165 17.8001 13.578 17.8001V20.0415H10.1835C10.0826 20.0415 10 20.1222 10 20.2208V21.476C10 21.5746 10.0826 21.6553 10.1835 21.6553H13.578V23.807C13.578 23.9527 13.5826 24.0984 13.594 24.2396C12.0206 24.8963 10.9174 26.4227 10.9174 28.2002C10.9174 28.2988 11 28.3795 11.1009 28.3795H12.3853C12.4862 28.3795 12.5688 28.2988 12.5688 28.2002C12.5688 27.2095 13.117 26.342 13.9358 25.8758C14.0734 26.2614 14.2477 26.6289 14.4564 26.9741C15.0138 27.9043 15.8096 28.6821 16.7615 29.2267C17.4243 29.6055 18.1606 29.8722 18.9472 30C19.0482 30 19.1307 29.9193 19.1307 29.8207V19.4139C19.1307 19.3153 19.2133 19.2346 19.3142 19.2346H20.6904C20.7913 19.2346 20.8739 19.3153 20.8739 19.4139V29.8185C20.8739 29.9171 20.9564 29.9978 21.0573 29.9978C21.844 29.87 22.5803 29.6033 23.2431 29.2245C24.195 28.6798 24.9908 27.9021 25.5482 26.9719C25.7569 26.6245 25.9312 26.2569 26.0688 25.8736C26.883 26.342 27.4312 27.2095 27.4312 28.2002C27.4312 28.2988 27.5138 28.3795 27.6147 28.3795H28.8991C29 28.3795 29.0826 28.2988 29.0826 28.2002C29.0826 26.4227 27.9794 24.8963 26.406 24.2396C26.4151 24.0962 26.422 23.9527 26.422 23.807V21.6553H29.8165C29.9174 21.6553 30 21.5746 30 21.476V20.2208C30 20.1222 29.9174 20.0415 29.8165 20.0415Z" fill="#141414"/>
</svg>
