<svg width="44" height="44" viewBox="0 0 44 44" fill="none" xmlns="http://www.w3.org/2000/svg">
<circle cx="22" cy="22" r="22" fill="url(#paint0_linear)"/>
<path d="M11.6289 22C11.6289 27.7186 16.2814 32.3711 22 32.3711C22.8821 32.3711 23.7587 32.26 24.6055 32.0408C25.2321 31.8786 25.6086 31.2392 25.4464 30.6126C25.2842 29.9861 24.645 29.6095 24.0183 29.7718C23.3632 29.9414 22.6841 30.0273 22 30.0273C17.5737 30.0273 13.9727 26.4263 13.9727 22C13.9727 17.5737 17.5737 13.9727 22 13.9727C22.931 13.9727 23.8428 14.1303 24.71 14.4413C25.319 14.6597 25.9901 14.343 26.2085 13.7337C26.427 13.1245 26.1102 12.4535 25.501 12.2351C24.3792 11.8328 23.2014 11.6289 22 11.6289C16.2814 11.6289 11.6289 16.2814 11.6289 22Z" fill="url(#paint1_linear)"/>
<path d="M15.2031 11.1016C15.8503 11.1016 16.375 10.5769 16.375 9.92969C16.375 9.28248 15.8503 8.75781 15.2031 8.75781C14.5559 8.75781 14.0312 9.28248 14.0312 9.92969C14.0312 10.5769 14.5559 11.1016 15.2031 11.1016Z" fill="white"/>
<path d="M9.94334 25.8617C9.54543 24.6184 9.34375 23.3192 9.34375 22.0001C9.34375 18.9431 10.4483 15.9919 12.4538 13.6901C12.879 13.2021 12.8281 12.4619 12.3402 12.0367C11.8522 11.6114 11.1119 11.6624 10.6868 12.1503C8.30934 14.8789 7 18.377 7 22.0001C7 23.562 7.23924 25.1015 7.71109 26.5761C7.87041 27.0737 8.33096 27.3911 8.82695 27.3911C8.94531 27.3911 9.06566 27.373 9.18443 27.335C9.80084 27.1377 10.1406 26.4781 9.94334 25.8617Z" fill="url(#paint2_linear)"/>
<path d="M28.9727 17.1953C29.6199 17.1953 30.1445 16.6706 30.1445 16.0234C30.1445 15.3762 29.6199 14.8516 28.9727 14.8516C28.3254 14.8516 27.8008 15.3762 27.8008 16.0234C27.8008 16.6706 28.3254 17.1953 28.9727 17.1953Z" fill="white"/>
<path d="M32.6066 11.3934C29.7735 8.56023 26.0066 7 22 7C21.1478 7 20.2928 7.07219 19.459 7.21451C18.8211 7.32344 18.3922 7.92889 18.5011 8.56691C18.61 9.20488 19.2152 9.63361 19.8535 9.52486C20.5574 9.40469 21.2795 9.34375 22 9.34375C28.9787 9.34375 34.6562 15.0213 34.6562 22C34.6562 24.9872 33.628 27.8155 31.7399 30.0825L30.1155 28.4582C31.5766 26.6283 32.3711 24.3723 32.3711 22C32.3711 21.3344 32.3075 20.6681 32.182 20.0196C32.059 19.3842 31.4447 18.9686 30.8088 19.0917C30.1734 19.2146 29.7579 19.8295 29.8809 20.4648C29.9781 20.967 30.0273 21.4835 30.0273 22C30.0273 23.7459 29.4713 25.4103 28.4446 26.7872L26.7607 25.1034C27.3595 24.1854 27.6836 23.1094 27.6836 22C27.6836 18.8661 25.1339 16.3164 22 16.3164C18.8661 16.3164 16.3164 18.8661 16.3164 22C16.3164 24.3931 17.8292 26.5435 20.0809 27.3511C20.2117 27.398 20.3452 27.4203 20.4765 27.4203C20.9572 27.4203 21.408 27.1222 21.5796 26.6437C21.7981 26.0345 21.4814 25.3635 20.8722 25.145C19.5491 24.6704 18.6602 23.4065 18.6602 22C18.6602 20.1584 20.1584 18.6602 22 18.6602C23.8416 18.6602 25.3398 20.1584 25.3398 22C25.3398 22.4815 25.2355 22.952 25.0398 23.3825L22.8287 21.1714C22.371 20.7137 21.629 20.7137 21.1714 21.1714C20.7137 21.629 20.7137 22.371 21.1714 22.8286L30.8454 32.5027C30.8751 32.5409 30.9065 32.5781 30.9416 32.6132C31.1704 32.8424 31.4706 32.957 31.7708 32.957C31.7732 32.957 31.7756 32.9567 31.778 32.9567C31.7804 32.9567 31.7828 32.957 31.7852 32.957C32.0851 32.957 32.385 32.8426 32.6139 32.6138C32.6523 32.5754 32.6863 32.5343 32.7183 32.4922C35.4802 29.6724 37 25.9537 37 22C37 17.9934 35.4397 14.2265 32.6066 11.3934Z" fill="white"/>
<path d="M27.3425 33.4771C25.6646 34.2596 23.8671 34.6563 21.9999 34.6563C19.5309 34.6563 17.1391 33.9455 15.0827 32.6007C14.541 32.2464 13.8147 32.3984 13.4605 32.9401C13.1063 33.4817 13.2582 34.208 13.7999 34.5622C16.2386 36.1571 19.0741 37.0001 21.9999 37.0001C24.212 37.0001 26.3428 36.5294 28.333 35.6012C28.9196 35.3276 29.1733 34.6304 28.8998 34.0438C28.6263 33.4572 27.9287 33.2037 27.3425 33.4771Z" fill="url(#paint3_linear)"/>
<path d="M11.043 31.5508C11.6902 31.5508 12.2148 31.0261 12.2148 30.3789C12.2148 29.7317 11.6902 29.207 11.043 29.207C10.3958 29.207 9.87109 29.7317 9.87109 30.3789C9.87109 31.0261 10.3958 31.5508 11.043 31.5508Z" fill="white"/>
<defs>
<linearGradient id="paint0_linear" x1="22" y1="0" x2="22" y2="44" gradientUnits="userSpaceOnUse">
<stop stop-color="#6C09EA"/>
<stop offset="1" stop-color="#570BB8"/>
</linearGradient>
<linearGradient id="paint1_linear" x1="25.5" y1="12.5" x2="24.5" y2="32" gradientUnits="userSpaceOnUse">
<stop stop-color="white" stop-opacity="0.75"/>
<stop offset="1" stop-color="white" stop-opacity="0.2"/>
</linearGradient>
<linearGradient id="paint2_linear" x1="9.8711" y1="11.7483" x2="9.8711" y2="27.3911" gradientUnits="userSpaceOnUse">
<stop stop-color="white" stop-opacity="0.75"/>
<stop offset="1" stop-color="white" stop-opacity="0.2"/>
</linearGradient>
<linearGradient id="paint3_linear" x1="13" y1="33" x2="29" y2="34" gradientUnits="userSpaceOnUse">
<stop stop-color="white" stop-opacity="0.75"/>
<stop offset="1" stop-color="white" stop-opacity="0.2"/>
</linearGradient>
</defs>
</svg>
